<svg xmlns="http://www.w3.org/2000/svg" version="1.1" xmlns:xlink="http://www.w3.org/1999/xlink" xmlns:svgjs="http://svgjs.com/svgjs" width="358" height="358"><svg width="358" height="358" viewBox="0 0 358 358" fill="none" xmlns="http://www.w3.org/2000/svg">
<g clip-path="url(#clip0_1_2)">
<circle cx="179" cy="179" r="179" fill="white"></circle>
<path d="M40.2021 178.989C51.7891 180.61 63.0599 183.216 73.9347 186.712C102.197 178.557 138.215 173.661 177.479 173.661C177.693 173.661 177.907 173.665 178.12 173.665V153.617H178.121C157.101 153.616 140.055 136.524 140.055 115.443C140.055 94.3618 157.101 77.2725 178.121 77.2712H178.12V19.0045C90.7774 19.4805 20.0391 89.9325 19.0469 177.15C26.2005 177.397 33.2579 178.016 40.2021 178.989Z" fill="#F36917"></path>
<path d="M178.033 263.693C178.031 263.693 178.031 263.692 178.031 263.692V257.553H173.56C148.675 224.653 114.028 199.601 73.9373 186.712H73.9347C63.0599 183.216 51.7891 180.61 40.2021 178.989C33.2579 178.016 26.2005 177.397 19.0469 177.15C19.0391 177.15 19.0312 177.149 19.0235 177.149C19.0156 177.769 19 178.381 19 179C19 267.067 90.148 338.51 178.104 338.997V338.862C178.08 338.856 178.056 338.857 178.033 338.852V263.693Z" fill="#426889"></path>
<path d="M178.12 77.2712H178.121C199.145 77.2725 216.188 94.3658 216.188 115.442C216.188 136.524 199.145 153.613 178.121 153.617H178.12V173.665C217.297 173.717 253.197 178.65 281.359 186.822C292.363 183.253 303.789 180.621 315.532 178.981C323.216 177.908 331.029 177.248 338.964 177.064C338.729 157.23 334.912 138.257 328.084 120.785C305.807 64.8565 253.311 24.3072 190.828 19.4259C186.921 19.1405 182.979 18.9885 179 18.9885C178.704 18.9885 178.412 19.0005 178.12 19.0032V19.0045V77.2712Z" fill="#F68B11"></path>
<path d="M338.995 177.062C338.989 177.062 338.987 177.062 338.981 177.062C338.976 177.064 338.972 177.064 338.964 177.064C331.029 177.248 323.216 177.909 315.532 178.982C303.792 180.624 292.371 183.256 281.365 186.822C241.459 199.761 206.972 224.768 182.175 257.556H178.033V263.693V338.852C178.056 338.857 178.08 338.856 178.104 338.862C178.404 338.952 178.708 339.012 179.009 339.012C266.735 339.012 337.961 268.412 338.995 180.928C338.997 180.549 339 179.502 339 178.572V178.569C338.997 177.921 338.997 177.328 338.995 177.062Z" fill="#09395B"></path>
</g>
<defs>
<clipPath id="SvgjsClipPath1000">
<rect width="358" height="358" fill="white"></rect>
</clipPath>
</defs>
</svg><style>@media (prefers-color-scheme: light) { :root { filter: none; } }
</style></svg>