<svg viewBox="0 0 320 321" fill="none" xmlns="http://www.w3.org/2000/svg">
<path d="M21.2021 160.804C32.7891 162.425 44.0599 165.031 54.9347 168.527C83.1973 160.372 119.215 155.476 158.479 155.476C158.693 155.476 158.907 155.48 159.12 155.48V135.432H159.121C138.101 135.431 121.055 118.339 121.055 97.2587C121.055 76.1773 138.101 59.088 159.121 59.0867H159.12V0.820007C71.7774 1.29601 1.03907 71.748 0.046936 158.965C7.20054 159.212 14.2579 159.831 21.2021 160.804Z" fill="#F36917"/>
<path d="M159.033 245.508C159.031 245.508 159.031 245.507 159.031 245.507V239.368H154.56C129.675 206.468 95.028 181.416 54.9373 168.527H54.9347C44.0599 165.031 32.7891 162.425 21.2021 160.804C14.2579 159.831 7.20053 159.212 0.046932 158.965C0.0390653 158.965 0.0312034 158.964 0.0234701 158.964C0.0156034 159.584 0 160.196 0 160.815C0 160.815 0 160.815 0 160.816C0 248.883 71.148 320.325 159.104 320.812V320.677C159.08 320.671 159.056 320.672 159.033 320.667V245.508Z" fill="#426889"/>
<path d="M159.12 59.0867C159.12 59.0867 159.12 59.0867 159.121 59.0867C180.145 59.088 197.188 76.1813 197.188 97.2573C197.188 118.339 180.145 135.428 159.121 135.432C159.12 135.432 159.12 135.432 159.12 135.432V155.48C198.297 155.532 234.197 160.465 262.359 168.637C273.363 165.068 284.789 162.436 296.532 160.796C304.216 159.723 312.029 159.063 319.964 158.879C319.729 139.045 315.912 120.072 309.084 102.6C286.807 46.672 234.311 6.12268 171.828 1.24134C167.921 0.95601 163.979 0.804006 160 0.804006C159.704 0.804006 159.412 0.815988 159.12 0.818654V0.819989V59.0867Z" fill="#F68B11"/>
<path d="M319.995 158.877C319.989 158.877 319.987 158.877 319.981 158.877C319.976 158.879 319.972 158.879 319.964 158.879C312.029 159.063 304.216 159.724 296.532 160.797C284.792 162.439 273.371 165.071 262.365 168.637C222.459 181.576 187.972 206.583 163.175 239.371H159.033V245.508V320.667C159.056 320.672 159.08 320.671 159.104 320.677C159.404 320.767 159.708 320.827 160.009 320.827C247.735 320.827 318.961 250.227 319.995 162.743C319.997 162.364 320 161.317 320 160.387C320 160.387 320 160.385 320 160.384C319.997 159.736 319.997 159.143 319.995 158.877Z" fill="#09395B"/>
</svg>
